{
  "accessors": [
    {
      "bufferView": 2,
      "componentType": 5126,
      "count": 65532,
      "max": [
        0.17004835605621338,
        0.12869761884212494,
        0.0848081111907959
      ],
      "min": [
        -0.17037466168403625,
        -0.13114240765571594,
        -5.4184048359218195e-09
      ],
      "type": "VEC3"
    },
    {
      "bufferView": 2,
      "byteOffset": 786384,
      "componentType": 5126,
      "count": 65532,
      "max": [
        0.9999898076057434,
        0.9999963641166687,
        1.0
      ],
      "min": [
        -0.9998741149902344,
        -0.9996716380119324,
        -1.0
      ],
      "type": "VEC3"
    },
    {
      "bufferView": 1,
      "componentType": 5126,
      "count": 65532,
      "max": [
        0.9996494650840759,
        0.9499510526657104
      ],
      "min": [
        0.000244140625,
        0.000248212949372828
      ],
      "type": "VEC2"
    },
    {
      "bufferView": 1,
      "byteOffset": 524256,
      "componentType": 5126,
      "count": 65532,
      "max": [
        0.9996494650840759,
        0.9499510526657104
      ],
      "min": [
        0.000244140625,
        0.000248212949372828
      ],
      "type": "VEC2"
    },
    {
      "bufferView": 0,
      "componentType": 5125,
      "count": 295287,
      "type": "SCALAR"
    },
    {
      "bufferView": 2,
      "byteOffset": 1572768,
      "componentType": 5126,
      "count": 65532,
      "max": [
        0.16871075332164764,
        0.13111385703086853,
        0.08006187528371811
      ],
      "min": [
        -0.1715458333492279,
        -0.13226422667503357,
        7.591578032872803e-09
      ],
      "type": "VEC3"
    },
    {
      "bufferView": 2,
      "byteOffset": 2359152,
      "componentType": 5126,
      "count": 65532,
      "max": [
        0.9998571872711182,
        0.9999887943267822,
        1.0
      ],
      "min": [
        -0.9999919533729553,
        -0.9999876618385315,
        -1.0
      ],
      "type": "VEC3"
    },
    {
      "bufferView": 1,
      "byteOffset": 1048512,
      "componentType": 5126,
      "count": 65532,
      "max": [
        0.9996922016143799,
        0.9460448026657104
      ],
      "min": [
        0.000244140625,
        0.00025298132095485926
      ],
      "type": "VEC2"
    },
    {
      "bufferView": 1,
      "byteOffset": 1572768,
      "componentType": 5126,
      "count": 65532,
      "max": [
        0.9996922016143799,
        0.9460448026657104
      ],
      "min": [
        0.000244140625,
        0.00025298132095485926
      ],
      "type": "VEC2"
    },
    {
      "bufferView": 0,
      "byteOffset": 1181148,
      "componentType": 5125,
      "count": 282738,
      "type": "SCALAR"
    },
    {
      "bufferView": 2,
      "byteOffset": 3145536,
      "componentType": 5126,
      "count": 63819,
      "max": [
        0.16937002539634705,
        0.13036730885505676,
        0.08389053493738174
      ],
      "min": [
        -0.1715458333492279,
        -0.13252055644989014,
        2.8022164144658745e-08
      ],
      "type": "VEC3"
    },
    {
      "bufferView": 2,
      "byteOffset": 3911364,
      "componentType": 5126,
      "count": 63819,
      "max": [
        0.9999232888221741,
        0.9999955892562866,
        0.9999999403953552
      ],
      "min": [
        -0.9999119639396667,
        -0.9999977946281433,
        -1.0
      ],
      "type": "VEC3"
    },
    {
      "bufferView": 1,
      "byteOffset": 2097024,
      "componentType": 5126,
      "count": 63819,
      "max": [
        0.9997172355651855,
        0.9381844997406006
      ],
      "min": [
        0.000244140625,
        0.0002444578567519784
      ],
      "type": "VEC2"
    },
    {
      "bufferView": 1,
      "byteOffset": 2607576,
      "componentType": 5126,
      "count": 63819,
      "max": [
        0.9997172355651855,
        0.9381844997406006
      ],
      "min": [
        0.000244140625,
        0.0002444578567519784
      ],
      "type": "VEC2"
    },
    {
      "bufferView": 0,
      "byteOffset": 2312100,
      "componentType": 5125,
      "count": 222813,
      "type": "SCALAR"
    }
  ],
  "asset": {
    "extras": {
      "author": "alban (https://sketchfab.com/alban)",
      "license": "CC-BY-4.0 (http://creativecommons.org/licenses/by/4.0/)",
      "source": "https://sketchfab.com/3d-models/home-made-sandwich-470c868e32f946f3bc70436c9e700af1",
      "title": "Home-made sandwich"
    },
    "generator": "Sketchfab-14.94.0",
    "version": "2.0"
  },
  "bufferViews": [
    {
      "buffer": 0,
      "byteLength": 3203352,
      "name": "floatBufferViews",
      "target": 34963
    },
    {
      "buffer": 0,
      "byteLength": 3118128,
      "byteOffset": 3203352,
      "byteStride": 8,
      "name": "floatBufferViews",
      "target": 34962
    },
    {
      "buffer": 0,
      "byteLength": 4677192,
      "byteOffset": 6321480,
      "byteStride": 12,
      "name": "floatBufferViews",
      "target": 34962
    }
  ],
  "buffers": [
    {
      "byteLength": 10998672,
      "uri": "scene.bin"
    }
  ],
  "extensionsUsed": [
    "KHR_materials_unlit"
  ],
  "images": [
    {
      "uri": "textures/tex_u1_v1_baseColor.jpeg"
    }
  ],
  "materials": [
    {
      "doubleSided": true,
      "extensions": {
        "KHR_materials_unlit": {}
      },
      "name": "tex_u1_v1",
      "pbrMetallicRoughness": {
        "baseColorTexture": {
          "index": 0
        },
        "metallicFactor": 0.0
      }
    }
  ],
  "meshes": [
    {
      "name": "model_tex_u1_v1_0",
      "primitives": [
        {
          "attributes": {
            "NORMAL": 1,
            "POSITION": 0,
            "TEXCOORD_0": 2,
            "TEXCOORD_1": 3
          },
          "indices": 4,
          "material": 0,
          "mode": 4
        }
      ]
    },
    {
      "name": "model_tex_u1_v1_0",
      "primitives": [
        {
          "attributes": {
            "NORMAL": 6,
            "POSITION": 5,
            "TEXCOORD_0": 7,
            "TEXCOORD_1": 8
          },
          "indices": 9,
          "material": 0,
          "mode": 4
        }
      ]
    },
    {
      "name": "model_tex_u1_v1_0",
      "primitives": [
        {
          "attributes": {
            "NORMAL": 11,
            "POSITION": 10,
            "TEXCOORD_0": 12,
            "TEXCOORD_1": 13
          },
          "indices": 14,
          "material": 0,
          "mode": 4
        }
      ]
    }
  ],
  "nodes": [
    {
      "children": [
        1
      ],
      "matrix": [
        1.222097635269165,
        0.0,
        0.0,
        0.0,
        0.0,
        2.7136018660315676e-16,
        -1.222097635269165,
        0.0,
        0.0,
        1.222097635269165,
        2.7136018660315676e-16,
        0.0,
        0.0,
        0.0,
        0.0,
        1.0
      ],
      "name": "Sketchfab_model"
    },
    {
      "children": [
        2
      ],
      "matrix": [
        1.0,
        0.0,
        0.0,
        0.0,
        0.0,
        0.0,
        1.0,
        0.0,
        0.0,
        -1.0,
        0.0,
        0.0,
        0.0,
        0.0,
        0.0,
        1.0
      ],
      "name": "model.fbx"
    },
    {
      "children": [
        3
      ],
      "name": "RootNode"
    },
    {
      "children": [
        4,
        5,
        6
      ],
      "matrix": [
        1.0,
        0.0,
        0.0,
        0.0,
        0.0,
        2.220446049250313e-16,
        -1.0,
        0.0,
        0.0,
        1.0,
        2.220446049250313e-16,
        0.0,
        0.0,
        0.0,
        0.0,
        1.0
      ],
      "name": "model"
    },
    {
      "mesh": 0,
      "name": "model_tex_u1_v1_0"
    },
    {
      "mesh": 1,
      "name": "model_tex_u1_v1_0"
    },
    {
      "mesh": 2,
      "name": "model_tex_u1_v1_0"
    }
  ],
  "samplers": [
    {
      "magFilter": 9729,
      "minFilter": 9987,
      "wrapS": 10497,
      "wrapT": 10497
    }
  ],
  "scene": 0,
  "scenes": [
    {
      "name": "Sketchfab_Scene",
      "nodes": [
        0
      ]
    }
  ],
  "textures": [
    {
      "sampler": 0,
      "source": 0
    }
  ]
}
